# xmcd CD database file
#
# Track frame offsets:
#	150
#	20365
#	43620
#	65987
#
# Disc length: 1112 seconds
#
# Revision: 0
# Processed by: cddbd v1.5.1PL0 Copyright (c) Steve Scherf et al.
# Submitted via: CDex 1.51
#
DISCID=32045604
DTITLE=superbrunch - SILENT CIRCUS
DYEAR=1998
DGENRE=Rock
TTITLE0=SILENT CIRCUS
TTITLE1=floating wonder
TTITLE2=BAD TASTE
TTITLE3=STEPPING STONE (Boyce and Hart From Album "More of The Monkees")
EXTD=YEAR: 1998
EXTT0=
EXTT1=
EXTT2=
EXTT3=
PLAYORDER=
